# 3ds Max Wavefront OBJ Exporter v0.97b - (c)2007 guruware
# File Created: 05.01.2013 14:34:20

#
# object Box466
#

v  -1.8180 0.0000 4.9031
v  -1.5761 0.4512 -4.9031
v  1.5761 0.4512 -4.9031
v  1.8180 0.0000 4.9031
v  -0.3102 2.8463 4.9031
v  0.3102 2.8463 4.9031
v  0.0683 2.3951 -4.9031
v  -0.0683 2.3951 -4.9031
v  1.8180 1.3384 4.9031
v  1.7264 1.7989 4.9031
v  1.6367 2.0154 4.9031
v  1.3759 2.4058 4.9031
v  1.3775 2.4042 4.9031
v  0.9872 2.6650 4.9031
v  0.7706 2.7547 4.9031
v  -0.7706 2.7547 4.9031
v  -0.9872 2.6650 4.9031
v  -1.3775 2.4042 4.9031
v  -1.3759 2.4058 4.9031
v  -1.6367 2.0154 4.9031
v  -1.7264 1.7989 4.9031
v  -1.8180 1.3384 4.9031
v  1.5761 0.8873 -4.9031
v  -1.5761 0.8873 -4.9031
v  -1.4845 1.3477 -4.9031
v  -1.3948 1.5643 -4.9031
v  -1.1340 1.9546 -4.9031
v  -1.1356 1.9530 -4.9031
v  -0.7453 2.2138 -4.9031
v  -0.5287 2.3036 -4.9031
v  0.5287 2.3036 -4.9031
v  0.7453 2.2138 -4.9031
v  1.1356 1.9530 -4.9031
v  1.1340 1.9546 -4.9031
v  1.3948 1.5643 -4.9031
v  1.4845 1.3477 -4.9031
v  -1.9553 0.6004 -4.4069
v  -1.9540 0.9009 -4.3539
v  -1.5749 0.9009 -4.3632
v  -1.5762 0.6004 -4.4162
v  -1.9503 1.1652 -4.2013
v  -1.5711 1.1652 -4.2107
v  -1.9445 1.3614 -3.9676
v  -1.5653 1.3614 -3.9770
v  -1.9374 1.4657 -3.6810
v  -1.5583 1.4657 -3.6903
v  -1.9299 1.4657 -3.3759
v  -1.5507 1.4657 -3.3853
v  -1.9228 1.3614 -3.0892
v  -1.5437 1.3614 -3.0986
v  -1.9171 1.1652 -2.8555
v  -1.5379 1.1652 -2.8649
v  -1.9133 0.9009 -2.7030
v  -1.5341 0.9009 -2.7124
v  -1.9120 0.6004 -2.6500
v  -1.5328 0.6004 -2.6594
v  -1.9133 0.2999 -2.7030
v  -1.5341 0.2999 -2.7124
v  -1.9171 0.0356 -2.8555
v  -1.5379 0.0356 -2.8649
v  -1.9228 -0.1606 -3.0892
v  -1.5437 -0.1606 -3.0986
v  -1.9299 -0.2649 -3.3759
v  -1.5507 -0.2649 -3.3853
v  -1.9374 -0.2649 -3.6810
v  -1.5583 -0.2649 -3.6903
v  -1.9445 -0.1606 -3.9676
v  -1.5653 -0.1606 -3.9770
v  -1.9503 0.0356 -4.2013
v  -1.5711 0.0356 -4.2107
v  -1.9540 0.2999 -4.3539
v  -1.5749 0.2999 -4.3632
v  1.5884 0.6004 -4.4069
v  1.5897 0.9009 -4.3539
v  1.9689 0.9009 -4.3632
v  1.9675 0.6004 -4.4162
v  1.5934 1.1652 -4.2013
v  1.9726 1.1652 -4.2107
v  1.5992 1.3614 -3.9676
v  1.9784 1.3614 -3.9770
v  1.6063 1.4657 -3.6810
v  1.9855 1.4657 -3.6903
v  1.6138 1.4657 -3.3759
v  1.9930 1.4657 -3.3853
v  1.6209 1.3614 -3.0892
v  2.0000 1.3614 -3.0986
v  1.6266 1.1652 -2.8555
v  2.0058 1.1652 -2.8649
v  1.6304 0.9009 -2.7030
v  2.0096 0.9009 -2.7124
v  1.6317 0.6004 -2.6500
v  2.0109 0.6004 -2.6594
v  1.6304 0.2999 -2.7030
v  2.0096 0.2999 -2.7124
v  1.6266 0.0356 -2.8555
v  2.0058 0.0356 -2.8649
v  1.6209 -0.1606 -3.0892
v  2.0000 -0.1606 -3.0986
v  1.6138 -0.2649 -3.3759
v  1.9930 -0.2649 -3.3853
v  1.6063 -0.2649 -3.6810
v  1.9855 -0.2649 -3.6903
v  1.5992 -0.1606 -3.9676
v  1.9784 -0.1606 -3.9770
v  1.5934 0.0356 -4.2013
v  1.9726 0.0356 -4.2107
v  1.5897 0.2999 -4.3539
v  1.9689 0.2999 -4.3632
v  1.5884 0.6004 2.9314
v  1.5897 0.9009 2.9844
v  1.9689 0.9009 2.9750
v  1.9675 0.6004 2.9221
v  1.5934 1.1652 3.1369
v  1.9726 1.1652 3.1276
v  1.5992 1.3614 3.3706
v  1.9784 1.3614 3.3613
v  1.6063 1.4657 3.6573
v  1.9855 1.4657 3.6479
v  1.6138 1.4657 3.9623
v  1.9930 1.4657 3.9530
v  1.6209 1.3614 4.2490
v  2.0000 1.3614 4.2397
v  1.6266 1.1652 4.4827
v  2.0058 1.1652 4.4734
v  1.6304 0.9009 4.6352
v  2.0096 0.9009 4.6259
v  1.6317 0.6004 4.6882
v  2.0109 0.6004 4.6789
v  1.6304 0.2999 4.6353
v  2.0096 0.2999 4.6259
v  1.6266 0.0356 4.4827
v  2.0058 0.0356 4.4734
v  1.6209 -0.1606 4.2490
v  2.0000 -0.1606 4.2397
v  1.6138 -0.2649 3.9623
v  1.9930 -0.2649 3.9530
v  1.6063 -0.2649 3.6573
v  1.9855 -0.2649 3.6479
v  1.5992 -0.1606 3.3706
v  1.9784 -0.1606 3.3613
v  1.5934 0.0356 3.1369
v  1.9726 0.0356 3.1276
v  1.5897 0.2999 2.9844
v  1.9689 0.2999 2.9750
v  -1.9553 0.6004 2.9314
v  -1.9540 0.9009 2.9844
v  -1.5749 0.9009 2.9750
v  -1.5762 0.6004 2.9221
v  -1.9503 1.1652 3.1369
v  -1.5711 1.1652 3.1276
v  -1.9445 1.3614 3.3706
v  -1.5653 1.3614 3.3613
v  -1.9374 1.4657 3.6573
v  -1.5583 1.4657 3.6479
v  -1.9299 1.4657 3.9623
v  -1.5507 1.4657 3.9530
v  -1.9228 1.3614 4.2490
v  -1.5437 1.3614 4.2397
v  -1.9171 1.1652 4.4827
v  -1.5379 1.1652 4.4734
v  -1.9133 0.9009 4.6352
v  -1.5341 0.9009 4.6259
v  -1.9120 0.6004 4.6882
v  -1.5328 0.6004 4.6789
v  -1.9133 0.2999 4.6353
v  -1.5341 0.2999 4.6259
v  -1.9171 0.0356 4.4827
v  -1.5379 0.0356 4.4734
v  -1.9228 -0.1606 4.2490
v  -1.5437 -0.1606 4.2397
v  -1.9299 -0.2649 3.9623
v  -1.5507 -0.2649 3.9530
v  -1.9374 -0.2649 3.6573
v  -1.5583 -0.2649 3.6479
v  -1.9445 -0.1606 3.3706
v  -1.5653 -0.1606 3.3613
v  -1.9503 0.0356 3.1369
v  -1.5711 0.0356 3.1276
v  -1.9540 0.2999 2.9844
v  -1.5749 0.2999 2.9750
# 180 vertices

vn 0.0000 -0.9989 -0.0460
vn 0.0000 0.9989 -0.0460
vn 0.0000 0.0000 1.0000
vn 0.0000 0.0000 -1.0000
vn 0.9997 0.0000 -0.0247
vn -0.9997 0.0000 -0.0247
vn -0.0247 -0.0000 -0.9997
vn -0.0232 0.3420 -0.9394
vn -0.0189 0.6428 -0.7658
vn -0.0123 0.8660 -0.4998
vn -0.0043 0.9848 -0.1736
vn 0.0043 0.9848 0.1736
vn 0.0123 0.8660 0.4998
vn 0.0189 0.6428 0.7658
vn 0.0232 0.3420 0.9394
vn 0.0247 -0.0000 0.9997
vn 0.0247 0.0000 0.9997
vn 0.0232 -0.3420 0.9394
vn 0.0189 -0.6428 0.7658
vn 0.0123 -0.8660 0.4998
vn 0.0043 -0.9848 0.1736
vn -0.0043 -0.9848 -0.1736
vn -0.0123 -0.8660 -0.4998
vn -0.0189 -0.6428 -0.7658
vn -0.0232 -0.3420 -0.9394
vn -0.9997 0.0000 0.0247
vn -0.9997 -0.0000 0.0247
vn 0.9997 -0.0000 -0.0247
vn -0.7062 -0.7063 0.0499
vn -0.7062 -0.7062 0.0499
vn 0.7062 -0.7062 0.0499
vn 0.7062 -0.7063 0.0499
vn 0.3822 0.9226 -0.0519
vn -0.3822 0.9226 -0.0519
vn 0.9231 0.3824 -0.0404
vn -0.9231 0.3824 -0.0404
vn 0.1948 0.9796 -0.0499
vn -0.1948 0.9796 -0.0499
vn 0.8306 0.5550 -0.0460
vn -0.8306 0.5550 -0.0460
vn 0.5548 0.8303 -0.0519
vn -0.5548 0.8303 -0.0519
vn 0.9802 0.1950 -0.0331
vn -0.9802 0.1950 -0.0331
# 44 vertex normals

vt 1.0000 0.0000 0.0000
vt 1.0000 1.0000 0.0000
vt 0.0000 1.0000 0.0000
vt 0.0000 0.0000 0.0000
vt 0.4147 0.0000 0.0000
vt 0.5853 0.0000 0.0000
vt 0.5217 1.0000 0.0000
vt 0.4783 1.0000 0.0000
vt 1.0000 0.4702 0.0000
vt 0.9748 0.6320 0.0000
vt 0.9501 0.7081 0.0000
vt 0.8784 0.8452 0.0000
vt 0.8789 0.8447 0.0000
vt 0.7715 0.9363 0.0000
vt 0.7119 0.9678 0.0000
vt 0.5853 1.0000 0.0000
vt 0.4147 1.0000 0.0000
vt 0.2881 0.9678 0.0000
vt 0.2285 0.9363 0.0000
vt 0.1211 0.8447 0.0000
vt 0.1216 0.8452 0.0000
vt 0.0499 0.7081 0.0000
vt 0.0252 0.6320 0.0000
vt 0.0000 0.4702 0.0000
vt 1.0000 0.2244 0.0000
vt 0.9709 0.4612 0.0000
vt 0.9425 0.5726 0.0000
vt 0.8597 0.7734 0.0000
vt 0.8603 0.7726 0.0000
vt 0.7364 0.9067 0.0000
vt 0.6677 0.9529 0.0000
vt 0.3323 0.9529 0.0000
vt 0.2636 0.9067 0.0000
vt 0.1397 0.7726 0.0000
vt 0.1403 0.7734 0.0000
vt 0.0575 0.5726 0.0000
vt 0.0291 0.4612 0.0000
vt 0.0000 0.2244 0.0000
vt 0.7500 0.0000 1.0000
vt 0.8056 0.0000 1.0000
vt 0.8056 1.0000 1.0000
vt 0.7500 1.0000 1.0000
vt 0.8611 0.0000 1.0000
vt 0.8611 1.0000 1.0000
vt 0.9167 0.0000 1.0000
vt 0.9167 1.0000 1.0000
vt 0.9722 0.0000 1.0000
vt 0.9722 1.0000 1.0000
vt 1.0278 0.0000 1.0000
vt 1.0278 1.0000 1.0000
vt 0.0278 0.0000 1.0000
vt 0.0833 0.0000 1.0000
vt 0.0833 1.0000 1.0000
vt 0.0278 1.0000 1.0000
vt 0.1389 0.0000 1.0000
vt 0.1389 1.0000 1.0000
vt 0.1944 0.0000 1.0000
vt 0.1944 1.0000 1.0000
vt 0.2500 0.0000 1.0000
vt 0.2500 1.0000 1.0000
vt 0.3056 0.0000 1.0000
vt 0.3056 1.0000 1.0000
vt 0.3611 0.0000 1.0000
vt 0.3611 1.0000 1.0000
vt 0.4167 0.0000 1.0000
vt 0.4167 1.0000 1.0000
vt 0.4722 0.0000 1.0000
vt 0.4722 1.0000 1.0000
vt 0.5278 0.0000 1.0000
vt 0.5278 1.0000 1.0000
vt 0.5833 0.0000 1.0000
vt 0.5833 1.0000 1.0000
vt 0.6389 0.0000 1.0000
vt 0.6389 1.0000 1.0000
vt 0.6944 0.0000 1.0000
vt 0.6944 1.0000 1.0000
vt 0.8214 0.8830 -0.2500
vt 0.9330 0.7500 -0.2500
vt 0.9924 0.5868 -0.2500
vt 0.9924 0.4132 -0.2500
vt 0.9330 0.2500 -0.2500
vt 0.8214 0.1170 -0.2500
vt 0.6710 0.0302 -0.2500
vt 0.5000 0.0000 -0.2500
vt 0.3290 0.0302 -0.2500
vt 0.1786 0.1170 -0.2500
vt 0.0670 0.2500 -0.2500
vt 0.0076 0.4132 -0.2500
vt 0.0076 0.5868 -0.2500
vt 0.0670 0.7500 -0.2500
vt 0.1786 0.8830 -0.2500
vt 0.3290 0.9698 -0.2500
vt 0.5000 1.0000 -0.2500
vt 0.6710 0.9698 -0.2500
vt 0.3290 0.9698 0.2500
vt 0.1786 0.8830 0.2500
vt 0.0670 0.7500 0.2500
vt 0.0076 0.5868 0.2500
vt 0.0076 0.4132 0.2500
vt 0.0670 0.2500 0.2500
vt 0.1786 0.1170 0.2500
vt 0.3290 0.0302 0.2500
vt 0.5000 0.0000 0.2500
vt 0.6710 0.0302 0.2500
vt 0.8214 0.1170 0.2500
vt 0.9330 0.2500 0.2500
vt 0.9924 0.4132 0.2500
vt 0.9924 0.5868 0.2500
vt 0.9330 0.7500 0.2500
vt 0.8214 0.8830 0.2500
vt 0.6710 0.9698 0.2500
vt 0.5000 1.0000 0.2500
vt 0.0027 0.7804 0.0000
vt 0.0027 0.7807 0.0000
vt 1.0025 0.6859 0.0000
vt 1.0025 0.6854 0.0000
vt -0.0025 0.6854 0.0000
vt -0.0025 0.6859 0.0000
vt 0.9973 0.7807 0.0000
vt 0.9973 0.7804 0.0000
vt 0.0102 0.8678 0.0000
vt 0.0070 0.8417 0.0000
vt 1.0069 0.7650 0.0000
vt 1.0104 0.7905 0.0000
vt -0.0104 0.7905 0.0000
vt -0.0069 0.7650 0.0000
vt 0.9930 0.8417 0.0000
vt 0.9898 0.8678 0.0000
vt 0.0011 0.6816 0.0000
vt 0.0006 0.6186 0.0000
vt 1.0005 0.4431 0.0000
vt 1.0010 0.5367 0.0000
vt -0.0010 0.5367 0.0000
vt -0.0005 0.4431 0.0000
vt 0.9994 0.6186 0.0000
vt 0.9989 0.6816 0.0000
vt 0.0151 0.9165 0.0000
vt 1.0145 0.8378 0.0000
vt -0.0145 0.8378 0.0000
vt 0.9849 0.9165 0.0000
# 140 texture coords

g Box466
f 1/1/1 2/2/1 3/3/1 
f 3/3/1 4/4/1 1/1/1 
f 5/5/2 6/6/2 7/7/2 
f 7/7/2 8/8/2 5/5/2 
f 4/1/3 9/9/3 10/10/3 
f 10/10/3 11/11/3 12/12/4 
f 4/1/3 10/10/3 12/12/4 
f 12/12/4 13/13/4 14/14/3 
f 14/14/3 15/15/3 6/16/3 
f 12/12/4 14/14/3 6/16/3 
f 4/1/3 12/12/4 6/16/3 
f 1/4/3 4/1/3 6/16/3 
f 6/16/3 5/17/3 16/18/3 
f 16/18/3 17/19/3 18/20/4 
f 6/16/3 16/18/3 18/20/4 
f 18/20/4 19/21/4 20/22/3 
f 20/22/3 21/23/3 22/24/3 
f 18/20/4 20/22/3 22/24/3 
f 6/16/3 18/20/4 22/24/3 
f 1/4/3 6/16/3 22/24/3 
f 4/4/5 3/1/5 23/25/5 
f 23/25/5 9/24/5 4/4/5 
f 2/1/4 24/25/4 25/26/4 
f 25/26/4 26/27/4 27/28/3 
f 2/1/4 25/26/4 27/28/3 
f 27/28/3 28/29/3 29/30/4 
f 29/30/4 30/31/4 8/7/4 
f 27/28/3 29/30/4 8/7/4 
f 2/1/4 27/28/3 8/7/4 
f 3/4/4 2/1/4 8/7/4 
f 8/7/4 7/8/4 31/32/4 
f 31/32/4 32/33/4 33/34/3 
f 8/7/4 31/32/4 33/34/3 
f 33/34/3 34/35/3 35/36/4 
f 35/36/4 36/37/4 23/38/4 
f 33/34/3 35/36/4 23/38/4 
f 8/7/4 33/34/3 23/38/4 
f 3/4/4 8/7/4 23/38/4 
f 2/4/6 1/1/6 22/9/6 
f 22/9/6 24/38/6 2/4/6 
f 37/39/7 38/40/8 39/41/8 
f 39/41/8 40/42/7 37/39/7 
f 38/40/8 41/43/9 42/44/9 
f 42/44/9 39/41/8 38/40/8 
f 41/43/9 43/45/10 44/46/10 
f 44/46/10 42/44/9 41/43/9 
f 43/45/10 45/47/11 46/48/11 
f 46/48/11 44/46/10 43/45/10 
f 45/47/11 47/49/12 48/50/12 
f 48/50/12 46/48/11 45/47/11 
f 47/51/12 49/52/13 50/53/13 
f 50/53/13 48/54/12 47/51/12 
f 49/52/13 51/55/14 52/56/14 
f 52/56/14 50/53/13 49/52/13 
f 51/55/14 53/57/15 54/58/15 
f 54/58/15 52/56/14 51/55/14 
f 53/57/15 55/59/16 56/60/17 
f 56/60/17 54/58/15 53/57/15 
f 55/59/16 57/61/18 58/62/18 
f 58/62/18 56/60/17 55/59/16 
f 57/61/18 59/63/19 60/64/19 
f 60/64/19 58/62/18 57/61/18 
f 59/63/19 61/65/20 62/66/20 
f 62/66/20 60/64/19 59/63/19 
f 61/65/20 63/67/21 64/68/21 
f 64/68/21 62/66/20 61/65/20 
f 63/67/21 65/69/22 66/70/22 
f 66/70/22 64/68/21 63/67/21 
f 65/69/22 67/71/23 68/72/23 
f 68/72/23 66/70/22 65/69/22 
f 67/71/23 69/73/24 70/74/24 
f 70/74/24 68/72/23 67/71/23 
f 69/73/24 71/75/25 72/76/25 
f 72/76/25 70/74/24 69/73/24 
f 71/75/25 37/39/7 40/42/7 
f 40/42/7 72/76/25 71/75/25 
f 69/77/26 67/78/26 65/79/26 
f 65/79/26 63/80/27 61/81/26 
f 61/81/26 59/82/26 57/83/26 
f 65/79/26 61/81/26 57/83/26 
f 57/83/26 55/84/26 53/85/26 
f 53/85/26 51/86/26 49/87/27 
f 57/83/26 53/85/26 49/87/27 
f 49/87/27 47/88/27 45/89/27 
f 45/89/27 43/90/26 41/91/27 
f 49/87/27 45/89/27 41/91/27 
f 57/83/26 49/87/27 41/91/27 
f 65/79/26 57/83/26 41/91/27 
f 41/91/27 38/92/27 37/93/26 
f 65/79/26 41/91/27 37/93/26 
f 69/77/26 65/79/26 37/93/26 
f 71/94/26 69/77/26 37/93/26 
f 39/95/28 42/96/28 44/97/28 
f 44/97/28 46/98/5 48/99/5 
f 48/99/5 50/100/5 52/101/5 
f 44/97/28 48/99/5 52/101/5 
f 52/101/5 54/102/5 56/103/28 
f 56/103/28 58/104/28 60/105/28 
f 52/101/5 56/103/28 60/105/28 
f 60/105/28 62/106/28 64/107/5 
f 64/107/5 66/108/28 68/109/28 
f 60/105/28 64/107/5 68/109/28 
f 52/101/5 60/105/28 68/109/28 
f 44/97/28 52/101/5 68/109/28 
f 68/109/28 70/110/28 72/111/28 
f 44/97/28 68/109/28 72/111/28 
f 39/95/28 44/97/28 72/111/28 
f 40/112/28 39/95/28 72/111/28 
f 73/39/7 74/40/8 75/41/8 
f 75/41/8 76/42/7 73/39/7 
f 74/40/8 77/43/9 78/44/9 
f 78/44/9 75/41/8 74/40/8 
f 77/43/9 79/45/10 80/46/10 
f 80/46/10 78/44/9 77/43/9 
f 79/45/10 81/47/11 82/48/11 
f 82/48/11 80/46/10 79/45/10 
f 81/47/11 83/49/12 84/50/12 
f 84/50/12 82/48/11 81/47/11 
f 83/51/12 85/52/13 86/53/13 
f 86/53/13 84/54/12 83/51/12 
f 85/52/13 87/55/14 88/56/14 
f 88/56/14 86/53/13 85/52/13 
f 87/55/14 89/57/15 90/58/15 
f 90/58/15 88/56/14 87/55/14 
f 89/57/15 91/59/16 92/60/17 
f 92/60/17 90/58/15 89/57/15 
f 91/59/16 93/61/18 94/62/18 
f 94/62/18 92/60/17 91/59/16 
f 93/61/18 95/63/19 96/64/19 
f 96/64/19 94/62/18 93/61/18 
f 95/63/19 97/65/20 98/66/20 
f 98/66/20 96/64/19 95/63/19 
f 97/65/20 99/67/21 100/68/21 
f 100/68/21 98/66/20 97/65/20 
f 99/67/21 101/69/22 102/70/22 
f 102/70/22 100/68/21 99/67/21 
f 101/69/22 103/71/23 104/72/23 
f 104/72/23 102/70/22 101/69/22 
f 103/71/23 105/73/24 106/74/24 
f 106/74/24 104/72/23 103/71/23 
f 105/73/24 107/75/25 108/76/25 
f 108/76/25 106/74/24 105/73/24 
f 107/75/25 73/39/7 76/42/7 
f 76/42/7 108/76/25 107/75/25 
f 105/77/26 103/78/26 101/79/26 
f 101/79/26 99/80/27 97/81/26 
f 97/81/26 95/82/26 93/83/26 
f 101/79/26 97/81/26 93/83/26 
f 93/83/26 91/84/26 89/85/26 
f 89/85/26 87/86/26 85/87/27 
f 93/83/26 89/85/26 85/87/27 
f 85/87/27 83/88/27 81/89/27 
f 81/89/27 79/90/26 77/91/27 
f 85/87/27 81/89/27 77/91/27 
f 93/83/26 85/87/27 77/91/27 
f 101/79/26 93/83/26 77/91/27 
f 77/91/27 74/92/27 73/93/26 
f 101/79/26 77/91/27 73/93/26 
f 105/77/26 101/79/26 73/93/26 
f 107/94/26 105/77/26 73/93/26 
f 75/95/28 78/96/28 80/97/28 
f 80/97/28 82/98/5 84/99/5 
f 84/99/5 86/100/5 88/101/5 
f 80/97/28 84/99/5 88/101/5 
f 88/101/5 90/102/5 92/103/28 
f 92/103/28 94/104/28 96/105/28 
f 88/101/5 92/103/28 96/105/28 
f 96/105/28 98/106/28 100/107/5 
f 100/107/5 102/108/28 104/109/28 
f 96/105/28 100/107/5 104/109/28 
f 88/101/5 96/105/28 104/109/28 
f 80/97/28 88/101/5 104/109/28 
f 104/109/28 106/110/28 108/111/28 
f 80/97/28 104/109/28 108/111/28 
f 75/95/28 80/97/28 108/111/28 
f 76/112/28 75/95/28 108/111/28 
f 109/39/7 110/40/8 111/41/8 
f 111/41/8 112/42/7 109/39/7 
f 110/40/8 113/43/9 114/44/9 
f 114/44/9 111/41/8 110/40/8 
f 113/43/9 115/45/10 116/46/10 
f 116/46/10 114/44/9 113/43/9 
f 115/45/10 117/47/11 118/48/11 
f 118/48/11 116/46/10 115/45/10 
f 117/47/11 119/49/12 120/50/12 
f 120/50/12 118/48/11 117/47/11 
f 119/51/12 121/52/13 122/53/13 
f 122/53/13 120/54/12 119/51/12 
f 121/52/13 123/55/14 124/56/14 
f 124/56/14 122/53/13 121/52/13 
f 123/55/14 125/57/15 126/58/15 
f 126/58/15 124/56/14 123/55/14 
f 125/57/15 127/59/17 128/60/17 
f 128/60/17 126/58/15 125/57/15 
f 127/59/17 129/61/18 130/62/18 
f 130/62/18 128/60/17 127/59/17 
f 129/61/18 131/63/19 132/64/19 
f 132/64/19 130/62/18 129/61/18 
f 131/63/19 133/65/20 134/66/20 
f 134/66/20 132/64/19 131/63/19 
f 133/65/20 135/67/21 136/68/21 
f 136/68/21 134/66/20 133/65/20 
f 135/67/21 137/69/22 138/70/22 
f 138/70/22 136/68/21 135/67/21 
f 137/69/22 139/71/23 140/72/23 
f 140/72/23 138/70/22 137/69/22 
f 139/71/23 141/73/24 142/74/24 
f 142/74/24 140/72/23 139/71/23 
f 141/73/24 143/75/25 144/76/25 
f 144/76/25 142/74/24 141/73/24 
f 143/75/25 109/39/7 112/42/7 
f 112/42/7 144/76/25 143/75/25 
f 141/77/26 139/78/26 137/79/26 
f 137/79/26 135/80/27 133/81/26 
f 133/81/26 131/82/26 129/83/26 
f 137/79/26 133/81/26 129/83/26 
f 129/83/26 127/84/26 125/85/26 
f 125/85/26 123/86/26 121/87/27 
f 129/83/26 125/85/26 121/87/27 
f 121/87/27 119/88/27 117/89/27 
f 117/89/27 115/90/26 113/91/26 
f 121/87/27 117/89/27 113/91/26 
f 129/83/26 121/87/27 113/91/26 
f 137/79/26 129/83/26 113/91/26 
f 113/91/26 110/92/27 109/93/26 
f 137/79/26 113/91/26 109/93/26 
f 141/77/26 137/79/26 109/93/26 
f 143/94/26 141/77/26 109/93/26 
f 111/95/28 114/96/28 116/97/28 
f 116/97/28 118/98/5 120/99/5 
f 120/99/5 122/100/5 124/101/5 
f 116/97/28 120/99/5 124/101/5 
f 124/101/5 126/102/5 128/103/28 
f 128/103/28 130/104/28 132/105/28 
f 124/101/5 128/103/28 132/105/28 
f 132/105/28 134/106/28 136/107/5 
f 136/107/5 138/108/28 140/109/28 
f 132/105/28 136/107/5 140/109/28 
f 124/101/5 132/105/28 140/109/28 
f 116/97/28 124/101/5 140/109/28 
f 140/109/28 142/110/28 144/111/28 
f 116/97/28 140/109/28 144/111/28 
f 111/95/28 116/97/28 144/111/28 
f 112/112/28 111/95/28 144/111/28 
f 145/39/7 146/40/8 147/41/8 
f 147/41/8 148/42/7 145/39/7 
f 146/40/8 149/43/9 150/44/9 
f 150/44/9 147/41/8 146/40/8 
f 149/43/9 151/45/10 152/46/10 
f 152/46/10 150/44/9 149/43/9 
f 151/45/10 153/47/11 154/48/11 
f 154/48/11 152/46/10 151/45/10 
f 153/47/11 155/49/12 156/50/12 
f 156/50/12 154/48/11 153/47/11 
f 155/51/12 157/52/13 158/53/13 
f 158/53/13 156/54/12 155/51/12 
f 157/52/13 159/55/14 160/56/14 
f 160/56/14 158/53/13 157/52/13 
f 159/55/14 161/57/15 162/58/15 
f 162/58/15 160/56/14 159/55/14 
f 161/57/15 163/59/17 164/60/17 
f 164/60/17 162/58/15 161/57/15 
f 163/59/17 165/61/18 166/62/18 
f 166/62/18 164/60/17 163/59/17 
f 165/61/18 167/63/19 168/64/19 
f 168/64/19 166/62/18 165/61/18 
f 167/63/19 169/65/20 170/66/20 
f 170/66/20 168/64/19 167/63/19 
f 169/65/20 171/67/21 172/68/21 
f 172/68/21 170/66/20 169/65/20 
f 171/67/21 173/69/22 174/70/22 
f 174/70/22 172/68/21 171/67/21 
f 173/69/22 175/71/23 176/72/23 
f 176/72/23 174/70/22 173/69/22 
f 175/71/23 177/73/24 178/74/24 
f 178/74/24 176/72/23 175/71/23 
f 177/73/24 179/75/25 180/76/25 
f 180/76/25 178/74/24 177/73/24 
f 179/75/25 145/39/7 148/42/7 
f 148/42/7 180/76/25 179/75/25 
f 177/77/26 175/78/26 173/79/26 
f 173/79/26 171/80/27 169/81/26 
f 169/81/26 167/82/26 165/83/26 
f 173/79/26 169/81/26 165/83/26 
f 165/83/26 163/84/26 161/85/26 
f 161/85/26 159/86/26 157/87/27 
f 165/83/26 161/85/26 157/87/27 
f 157/87/27 155/88/27 153/89/27 
f 153/89/27 151/90/26 149/91/26 
f 157/87/27 153/89/27 149/91/26 
f 165/83/26 157/87/27 149/91/26 
f 173/79/26 165/83/26 149/91/26 
f 149/91/26 146/92/27 145/93/26 
f 173/79/26 149/91/26 145/93/26 
f 177/77/26 173/79/26 145/93/26 
f 179/94/26 177/77/26 145/93/26 
f 147/95/28 150/96/28 152/97/28 
f 152/97/28 154/98/5 156/99/5 
f 156/99/5 158/100/5 160/101/5 
f 152/97/28 156/99/5 160/101/5 
f 160/101/5 162/102/5 164/103/28 
f 164/103/28 166/104/28 168/105/28 
f 160/101/5 164/103/28 168/105/28 
f 168/105/28 170/106/28 172/107/5 
f 172/107/5 174/108/28 176/109/28 
f 168/105/28 172/107/5 176/109/28 
f 160/101/5 168/105/28 176/109/28 
f 152/97/28 160/101/5 176/109/28 
f 176/109/28 178/110/28 180/111/28 
f 152/97/28 176/109/28 180/111/28 
f 147/95/28 152/97/28 180/111/28 
f 148/112/28 147/95/28 180/111/28 
f 13/113/29 12/114/29 34/115/29 
f 34/115/30 33/116/30 13/113/30 
f 28/117/31 27/118/31 19/119/31 
f 19/119/32 18/120/32 28/117/32 
f 15/121/33 14/122/33 32/123/33 
f 32/123/33 31/124/33 15/121/33 
f 30/125/34 29/126/34 17/127/34 
f 17/127/34 16/128/34 30/125/34 
f 11/129/35 10/130/35 36/131/35 
f 36/131/35 35/132/35 11/129/35 
f 26/133/36 25/134/36 21/135/36 
f 21/135/36 20/136/36 26/133/36 
f 6/137/37 15/121/37 31/124/37 
f 31/124/37 7/138/37 6/137/37 
f 8/139/38 30/125/38 16/128/38 
f 16/128/38 5/140/38 8/139/38 
f 12/114/39 11/129/39 35/132/39 
f 35/132/39 34/115/39 12/114/39 
f 27/118/40 26/133/40 20/136/40 
f 20/136/40 19/119/40 27/118/40 
f 14/122/41 13/113/41 33/116/41 
f 33/116/41 32/123/41 14/122/41 
f 29/126/42 28/117/42 18/120/42 
f 18/120/42 17/127/42 29/126/42 
f 10/130/43 9/24/43 23/25/43 
f 23/25/43 36/131/43 10/130/43 
f 25/134/44 24/38/44 22/9/44 
f 22/9/44 21/135/44 25/134/44 
# 340 faces

